<?xml version="1.0" standalone="no"?>
<!DOCTYPE svg PUBLIC "-//W3C//DTD SVG 20010904//EN"
 "http://www.w3.org/TR/2001/REC-SVG-20010904/DTD/svg10.dtd">
<svg version="1.0" xmlns="http://www.w3.org/2000/svg"
 width="114.000000pt" height="114.000000pt" viewBox="0 0 114.000000 114.000000"
 preserveAspectRatio="xMidYMid meet">
<metadata>
Created by potrace 1.14, written by Peter Selinger 2001-2017
</metadata>
<g transform="translate(0.000000,114.000000) scale(0.100000,-0.100000)"
fill="#000000" stroke="none">
<path d="M0 699 l0 -440 22 3 c18 2 23 10 25 47 2 25 6 48 10 51 15 13 96 41
101 35 10 -10 -18 -29 -46 -31 -22 -1 -27 -6 -27 -25 0 -18 5 -23 20 -22 11 2
27 -2 35 -7 13 -9 13 -11 0 -20 -8 -6 -24 -8 -34 -6 -13 3 -16 2 -9 -5 6 -6
30 -13 54 -15 24 -3 47 -8 51 -10 4 -3 8 -1 8 5 0 6 12 8 30 5 27 -6 30 -4 30
17 -1 23 -1 23 -14 6 -10 -12 -16 -15 -21 -7 -4 6 -12 9 -19 7 -6 -2 -21 -1
-33 4 -19 7 -22 13 -16 41 8 43 19 56 51 60 18 2 28 10 32 27 3 14 12 27 19
29 10 3 12 -7 10 -42 -2 -25 -1 -46 3 -46 5 0 8 9 8 20 0 16 6 19 37 17 33 -2
38 1 41 21 3 19 -1 22 -27 22 -21 0 -31 5 -31 15 0 19 60 21 78 3 7 -7 12 -40
12 -79 0 -58 -3 -70 -22 -83 -12 -8 -26 -12 -31 -9 -7 4 -8 -1 -3 -13 5 -10
10 -27 13 -36 3 -10 14 -20 24 -23 11 -4 17 -11 14 -16 -4 -5 3 -9 14 -9 14 0
21 6 21 20 0 16 -7 20 -30 20 -20 0 -30 5 -30 15 0 19 70 21 88 3 22 -22 14
-75 -13 -96 -22 -18 -23 -21 -7 -28 9 -4 20 -8 24 -8 3 -1 9 -4 13 -8 4 -4 13
-5 21 -2 51 15 50 14 16 43 -45 40 -43 84 6 110 18 9 28 9 50 -1 23 -12 27
-20 27 -56 0 -23 3 -42 8 -42 4 0 7 17 7 39 0 37 19 68 33 54 4 -3 7 -19 7
-34 0 -18 6 -28 20 -32 15 -4 20 0 20 15 0 43 15 54 77 54 l58 -1 6 -40 c4
-27 7 -31 8 -14 1 34 30 59 68 59 40 0 55 -20 52 -67 -3 -51 1 -111 8 -95 6
15 30 16 35 0 2 -6 10 -8 16 -4 7 4 12 33 12 72 l0 64 -30 0 c-20 0 -30 5 -30
16 0 12 10 14 48 12 l47 -3 1 -55 c0 -30 1 -68 3 -85 2 -28 3 -29 11 -7 5 12
12 22 15 22 4 0 3 -4 0 -10 -9 -14 8 -12 24 3 8 6 12 8 9 2 -3 -5 -2 -19 3
-30 5 -13 8 8 8 58 1 62 -2 77 -14 77 -9 0 -15 -9 -15 -25 0 -14 5 -25 10 -25
6 0 10 -7 10 -15 0 -18 -21 -20 -38 -3 -30 30 -3 108 33 94 13 -5 15 46 15
439 l0 445 -570 0 -570 0 0 -441z m563 321 c-3 -12 3 -19 18 -23 28 -8 39 -1
39 24 0 10 5 19 10 19 13 0 13 -137 1 -145 -6 -3 -11 12 -13 32 -2 32 -7 39
-28 41 -14 2 -31 9 -37 14 -14 11 -18 60 -6 71 10 11 21 -13 16 -33z m-33 2
c0 -36 -16 -52 -52 -52 -23 0 -28 -4 -28 -25 0 -21 5 -25 30 -25 20 0 30 -5
30 -16 0 -12 -9 -14 -42 -12 -41 3 -43 5 -46 36 -4 40 9 58 48 66 20 4 30 11
30 24 0 10 3 22 7 25 14 14 23 6 23 -21z m-149 -125 c-8 -8 -11 -5 -11 9 0 27
14 41 18 19 2 -9 -1 -22 -7 -28z m347 6 c2 -8 -5 -13 -17 -13 -21 0 -35 13
-24 24 10 10 36 3 41 -11z m-274 -42 c36 -30 6 -91 -46 -91 -20 0 -28 -5 -28
-17 0 -15 -2 -15 -9 -4 -14 22 5 49 36 53 20 2 29 9 31 26 3 19 -1 22 -27 22
-31 0 -42 14 -18 23 19 7 43 3 61 -12z m96 9 c16 -8 19 -21 18 -80 0 -79 -17
-104 -64 -98 -43 5 -43 28 0 28 31 0 36 3 36 24 0 21 -6 25 -32 28 -18 2 -33
8 -33 13 0 6 15 11 33 13 26 3 32 7 32 28 0 20 -5 24 -30 24 -30 0 -41 14 -17
23 20 9 37 8 57 -3z m70 -35 c0 -30 3 -35 24 -35 20 0 25 6 28 32 2 17 9 33
15 36 10 3 12 -17 10 -79 -1 -55 -6 -84 -14 -87 -9 -2 -13 8 -13 32 0 33 -3
36 -28 36 -38 0 -52 17 -52 62 0 27 4 38 15 38 10 0 15 -11 15 -35z m131 -82
c-7 -45 -31 -57 -31 -16 0 27 15 53 30 53 4 0 4 -17 1 -37z m-307 -42 c4 -5 0
-11 -6 -14 -18 -5 -48 3 -48 14 0 12 47 12 54 0z m74 -54 c16 -19 14 -153 -3
-167 -16 -13 -80 -10 -79 5 0 6 13 12 30 15 20 4 30 12 32 28 3 19 -1 22 -27
22 -21 0 -31 5 -31 15 0 10 10 15 30 15 25 0 30 4 30 25 0 21 -5 25 -30 25
-32 0 -41 16 -12 23 32 9 50 7 60 -6z m120 -1 c17 -11 13 -137 -6 -158 -19
-23 -82 -25 -82 -3 0 10 11 15 35 15 30 0 35 3 35 24 0 21 -6 25 -32 28 -18 2
-33 8 -33 13 0 6 15 11 33 13 26 3 32 7 32 28 0 20 -5 24 -30 24 -28 0 -38 9
-24 23 8 7 56 3 72 -7z m64 -43 c5 -56 4 -60 -17 -43 -20 16 -21 90 -1 90 9 0
15 -15 18 -47z m-286 -120 c-5 -12 -10 -13 -18 -5 -8 8 -8 15 3 28 15 18 25 4
15 -23z m354 12 c0 -8 -4 -15 -10 -15 -5 0 -10 7 -10 15 0 8 5 15 10 15 6 0
10 -7 10 -15z m-322 -79 c3 -32 6 -37 25 -34 17 2 23 12 27 37 3 19 11 36 18
39 10 3 13 -8 11 -47 -3 -57 2 -69 21 -46 7 8 25 15 41 15 24 0 29 4 29 25 0
21 -5 25 -30 25 -20 0 -30 5 -30 15 0 19 60 21 78 3 31 -31 0 -98 -45 -98 -17
0 -23 -6 -23 -23 0 -17 6 -23 27 -25 28 -2 40 -9 31 -17 -8 -9 -113 -9 -126
-1 -7 4 -12 20 -12 37 0 24 -4 29 -24 29 -34 0 -53 31 -48 75 6 46 26 40 30
-9z m320 31 c14 -16 14 -138 0 -154 -12 -15 -88 -17 -88 -3 0 6 9 10 19 10 33
0 51 11 51 31 0 13 -7 19 -21 19 -11 0 -29 5 -40 10 -25 14 -26 75 -1 89 24
15 68 13 80 -2z m62 -32 c0 -30 3 -35 24 -35 19 0 25 6 28 25 2 14 8 27 13 28
10 2 17 -104 8 -135 -8 -31 -23 -19 -23 17 0 31 -3 35 -26 35 -35 0 -54 22
-54 64 0 25 4 36 15 36 10 0 15 -11 15 -35z m176 -77 c0 -33 -6 -53 -14 -56
-11 -3 -13 8 -9 54 6 71 5 66 16 60 5 -3 8 -29 7 -58z m69 32 c18 -7 19 -8 3
-15 -21 -8 -48 0 -48 15 0 12 17 12 45 0z m45 -43 c0 -13 -5 -28 -12 -35 -14
-14 -88 -16 -88 -2 0 6 6 11 13 11 6 1 17 2 22 4 6 1 16 3 23 3 6 1 12 11 12
22 0 11 7 20 15 20 9 0 15 -9 15 -23z m-1089 -30 c-13 -13 -26 -3 -16 12 3 6
11 8 17 5 6 -4 6 -10 -1 -17z"/>
<path d="M700 415 c0 -20 5 -25 25 -25 20 0 25 5 25 25 0 20 -5 25 -25 25 -20
0 -25 -5 -25 -25z"/>
<path d="M200 341 c0 -13 9 -20 33 -24 39 -6 38 -6 30 21 -7 29 -63 32 -63 3z"/>
<path d="M323 340 c1 -18 14 -25 34 -17 4 1 8 10 8 20 1 11 -6 17 -21 17 -17
0 -22 -5 -21 -20z"/>
<path d="M3 197 c2 -32 27 -50 27 -20 0 7 5 13 10 13 16 0 11 27 -6 34 -29 11
-34 6 -31 -27z"/>
<path d="M523 211 c0 -11 5 -17 9 -15 11 7 10 34 -1 34 -6 0 -9 -9 -8 -19z"/>
<path d="M550 208 c0 -19 2 -20 10 -8 13 19 13 30 0 30 -5 0 -10 -10 -10 -22z"/>
<path d="M728 199 c-8 -51 1 -78 26 -76 28 2 36 14 36 65 0 40 -2 42 -29 42
-25 0 -29 -5 -33 -31z"/>
<path d="M880 207 c0 -16 3 -17 14 -8 11 9 15 9 19 -1 3 -7 6 -3 6 9 1 16 -4
21 -19 20 -12 -1 -20 -8 -20 -20z"/>
<path d="M30 140 c0 -5 5 -10 10 -10 6 0 10 5 10 10 0 6 -4 10 -10 10 -5 0
-10 -4 -10 -10z"/>
<path d="M645 141 c-10 -9 -4 -22 7 -15 6 4 17 -1 25 -11 12 -18 13 -17 13 7
0 21 -5 26 -20 25 -12 -1 -23 -3 -25 -6z"/>
</g>
</svg>
